<svg width="25" height="25" viewBox="0 0 25 25"  xmlns="http://www.w3.org/2000/svg">
<path fill-rule="evenodd" clip-rule="evenodd" d="M12.5 2.5C12.8315 2.5 13.1495 2.6317 13.3839 2.86612C13.6183 3.10054 13.75 3.41848 13.75 3.75V5C13.75 5.33152 13.6183 5.64946 13.3839 5.88388C13.1495 6.1183 12.8315 6.25 12.5 6.25C12.1685 6.25 11.8505 6.1183 11.6161 5.88388C11.3817 5.64946 11.25 5.33152 11.25 5V3.75C11.25 3.41848 11.3817 3.10054 11.6161 2.86612C11.8505 2.6317 12.1685 2.5 12.5 2.5ZM17.5 12.5C17.5 13.8261 16.9732 15.0979 16.0355 16.0355C15.0979 16.9732 13.8261 17.5 12.5 17.5C11.1739 17.5 9.90215 16.9732 8.96447 16.0355C8.02678 15.0979 7.5 13.8261 7.5 12.5C7.5 11.1739 8.02678 9.90215 8.96447 8.96447C9.90215 8.02678 11.1739 7.5 12.5 7.5C13.8261 7.5 15.0979 8.02678 16.0355 8.96447C16.9732 9.90215 17.5 11.1739 17.5 12.5ZM16.92 18.6875L17.8037 19.5712C18.0395 19.7989 18.3553 19.9249 18.683 19.9221C19.0107 19.9192 19.3243 19.7878 19.556 19.556C19.7878 19.3243 19.9192 19.0107 19.9221 18.683C19.9249 18.3553 19.7989 18.0395 19.5712 17.8038L18.6875 16.92C18.4517 16.6923 18.136 16.5663 17.8082 16.5692C17.4805 16.572 17.167 16.7035 16.9352 16.9352C16.7035 17.167 16.572 17.4805 16.5692 17.8082C16.5663 18.136 16.6923 18.4517 16.92 18.6875ZM19.57 5.42875C19.8043 5.66316 19.936 5.98105 19.936 6.3125C19.936 6.64396 19.8043 6.96184 19.57 7.19625L18.6875 8.08C18.5722 8.19939 18.4343 8.29462 18.2818 8.36013C18.1292 8.42564 17.9652 8.46012 17.7992 8.46156C17.6333 8.46301 17.4687 8.43138 17.3151 8.36853C17.1614 8.30568 17.0219 8.21286 16.9045 8.09549C16.7871 7.97813 16.6943 7.83856 16.6315 7.68494C16.5686 7.53132 16.537 7.36672 16.5384 7.20075C16.5399 7.03477 16.5744 6.87075 16.6399 6.71824C16.7054 6.56574 16.8006 6.42781 16.92 6.3125L17.8037 5.42875C18.0382 5.19441 18.356 5.06277 18.6875 5.06277C19.019 5.06277 19.3368 5.19441 19.5712 5.42875H19.57ZM21.25 13.75C21.5815 13.75 21.8995 13.6183 22.1339 13.3839C22.3683 13.1495 22.5 12.8315 22.5 12.5C22.5 12.1685 22.3683 11.8505 22.1339 11.6161C21.8995 11.3817 21.5815 11.25 21.25 11.25H20C19.6685 11.25 19.3505 11.3817 19.1161 11.6161C18.8817 11.8505 18.75 12.1685 18.75 12.5C18.75 12.8315 18.8817 13.1495 19.1161 13.3839C19.3505 13.6183 19.6685 13.75 20 13.75H21.25ZM12.5 18.75C12.8315 18.75 13.1495 18.8817 13.3839 19.1161C13.6183 19.3505 13.75 19.6685 13.75 20V21.25C13.75 21.5815 13.6183 21.8995 13.3839 22.1339C13.1495 22.3683 12.8315 22.5 12.5 22.5C12.1685 22.5 11.8505 22.3683 11.6161 22.1339C11.3817 21.8995 11.25 21.5815 11.25 21.25V20C11.25 19.6685 11.3817 19.3505 11.6161 19.1161C11.8505 18.8817 12.1685 18.75 12.5 18.75ZM6.3125 8.08C6.42856 8.19614 6.56635 8.28828 6.71802 8.35116C6.86968 8.41405 7.03225 8.44645 7.19643 8.4465C7.36062 8.44656 7.52321 8.41428 7.67492 8.3515C7.82663 8.28872 7.96449 8.19668 8.08062 8.08063C8.19676 7.96457 8.2889 7.82678 8.35179 7.67511C8.41467 7.52344 8.44707 7.36088 8.44713 7.19669C8.44719 7.03251 8.4149 6.86992 8.35213 6.71821C8.28935 6.5665 8.19731 6.42864 8.08125 6.3125L7.19625 5.42875C6.9605 5.20105 6.64474 5.07506 6.317 5.07791C5.98925 5.08076 5.67574 5.21222 5.44398 5.44398C5.21222 5.67574 5.08076 5.98925 5.07791 6.317C5.07506 6.64474 5.20105 6.9605 5.42875 7.19625L6.3125 8.08ZM8.08 18.6875L7.19625 19.5712C6.9605 19.7989 6.64474 19.9249 6.317 19.9221C5.98925 19.9192 5.67574 19.7878 5.44398 19.556C5.21222 19.3243 5.08076 19.0107 5.07791 18.683C5.07506 18.3553 5.20105 18.0395 5.42875 17.8038L6.3125 16.92C6.54825 16.6923 6.86401 16.5663 7.19175 16.5692C7.5195 16.572 7.83301 16.7035 8.06477 16.9352C8.29653 17.167 8.42799 17.4805 8.43084 17.8082C8.43369 18.136 8.3077 18.4517 8.08 18.6875ZM5 13.75C5.33152 13.75 5.64946 13.6183 5.88388 13.3839C6.1183 13.1495 6.25 12.8315 6.25 12.5C6.25 12.1685 6.1183 11.8505 5.88388 11.6161C5.64946 11.3817 5.33152 11.25 5 11.25H3.75C3.41848 11.25 3.10054 11.3817 2.86612 11.6161C2.6317 11.8505 2.5 12.1685 2.5 12.5C2.5 12.8315 2.6317 13.1495 2.86612 13.3839C3.10054 13.6183 3.41848 13.75 3.75 13.75H5Z" fill="#F2F2F2"/>
</svg>
