<svg width="15" height="15" viewBox="0 0 15 15" fill="none" xmlns="http://www.w3.org/2000/svg">
<rect width="15" height="15" rx="2" fill="currentColor"/>
<path d="M11.0539 9.11248C10.457 9.11248 9.89742 8.86548 9.38879 8.4635L9.51229 7.89439L9.51662 7.87218C9.62875 7.26763 9.9765 6.2537 11.0544 6.2537C11.8626 6.2537 12.5185 6.89475 12.5185 7.68336C12.518 8.47091 11.862 9.11248 11.0539 9.11248ZM11.0539 4.80712C9.67858 4.80712 8.61096 5.6793 8.17763 7.11636C7.51679 6.14633 7.01413 4.98166 6.72217 4H5.24017V7.76164C5.23908 8.50529 4.62213 9.10825 3.86054 9.10931C3.0995 9.10825 2.48308 8.50476 2.482 7.76164V4H1V7.76164C1 9.30289 2.28375 10.5665 3.86054 10.5665C5.43842 10.5665 6.72217 9.30289 6.72217 7.76164V7.13223C7.00871 7.71774 7.36242 8.31118 7.79142 8.83586L6.88521 13H8.40025L9.05729 9.9799C9.63308 10.339 10.295 10.5665 11.0539 10.5665C12.6789 10.5665 14 9.26957 14 7.68389C14 6.09714 12.6789 4.80712 11.0539 4.80712Z" fill="currentColor" style="filter: invert(1)"/>
</svg>
